<?xml version="1.0" encoding="UTF-8"?>
<svg xmlns="http://www.w3.org/2000/svg" xmlns:xlink="http://www.w3.org/1999/xlink" width="20pt" height="20pt" viewBox="0 0 20 20" version="1.1">
<defs>
<linearGradient id="linear0" gradientUnits="userSpaceOnUse" x1="407.1325" y1="4.4733" x2="104.8675" y2="507.5267" gradientTransform="matrix(0.0390625,0,0,0.0390625,0,0)">
<stop offset="0" style="stop-color:rgb(28.235294%,27.058824%,63.529412%);stop-opacity:1;"/>
<stop offset="0.0453646" style="stop-color:rgb(34.901961%,27.058824%,63.529412%);stop-opacity:1;"/>
<stop offset="0.1713" style="stop-color:rgb(51.764706%,26.666667%,63.137255%);stop-opacity:1;"/>
<stop offset="0.2698" style="stop-color:rgb(61.960784%,26.666667%,63.137255%);stop-opacity:1;"/>
<stop offset="0.3282" style="stop-color:rgb(65.882353%,26.666667%,63.137255%);stop-opacity:1;"/>
<stop offset="0.3905" style="stop-color:rgb(67.058824%,25.882353%,60.392157%);stop-opacity:1;"/>
<stop offset="0.4788" style="stop-color:rgb(70.588235%,23.529412%,53.333333%);stop-opacity:1;"/>
<stop offset="0.4896" style="stop-color:rgb(70.980392%,23.137255%,52.156863%);stop-opacity:1;"/>
<stop offset="0.5577" style="stop-color:rgb(74.509804%,20.784314%,44.705882%);stop-opacity:1;"/>
<stop offset="0.6762" style="stop-color:rgb(82.352941%,15.294118%,28.627451%);stop-opacity:1;"/>
<stop offset="0.7388" style="stop-color:rgb(87.45098%,30.980392%,24.313725%);stop-opacity:1;"/>
<stop offset="0.8559" style="stop-color:rgb(97.647059%,63.921569%,14.901961%);stop-opacity:1;"/>
<stop offset="1" style="stop-color:rgb(97.647059%,86.666667%,14.901961%);stop-opacity:1;"/>
</linearGradient>
</defs>
<g id="surface1">
<path style=" stroke:none;fill-rule:nonzero;fill:url(#linear0);" d="M 15.292969 0.507812 L 4.707031 0.507812 C 2.386719 0.507812 0.507812 2.386719 0.507812 4.707031 L 0.507812 15.289062 C 0.507812 17.613281 2.386719 19.492188 4.707031 19.492188 L 15.289062 19.492188 C 17.609375 19.492188 19.488281 17.613281 19.488281 15.292969 L 19.488281 4.707031 C 19.492188 2.386719 17.613281 0.507812 15.292969 0.507812 Z M 15.292969 0.507812 "/>
<path style=" stroke:none;fill-rule:nonzero;fill:rgb(100%,100%,100%);fill-opacity:1;" d="M 14.59375 6.25 C 14.59375 6.707031 14.222656 7.078125 13.765625 7.078125 C 13.308594 7.078125 12.9375 6.707031 12.9375 6.25 C 12.9375 5.792969 13.308594 5.421875 13.765625 5.421875 C 14.222656 5.421875 14.59375 5.792969 14.59375 6.25 Z M 14.59375 6.25 "/>
<path style=" stroke:none;fill-rule:nonzero;fill:rgb(100%,100%,100%);fill-opacity:1;" d="M 13.039062 2.96875 L 6.960938 2.96875 C 4.757812 2.96875 2.96875 4.757812 2.96875 6.960938 L 2.96875 13.039062 C 2.96875 15.242188 4.757812 17.03125 6.960938 17.03125 L 13.039062 17.03125 C 15.242188 17.03125 17.03125 15.238281 17.03125 13.039062 L 17.03125 6.960938 C 17.03125 4.757812 15.242188 2.96875 13.039062 2.96875 Z M 15.761719 13.039062 C 15.761719 14.539062 14.539062 15.761719 13.039062 15.761719 L 6.960938 15.761719 C 5.460938 15.761719 4.238281 14.539062 4.238281 13.039062 L 4.238281 6.960938 C 4.238281 5.460938 5.460938 4.238281 6.960938 4.238281 L 13.039062 4.238281 C 14.539062 4.238281 15.761719 5.460938 15.761719 6.960938 Z M 15.761719 13.039062 "/>
<path style=" stroke:none;fill-rule:nonzero;fill:rgb(100%,100%,100%);fill-opacity:1;" d="M 10 6.339844 C 7.980469 6.339844 6.339844 7.980469 6.339844 10 C 6.339844 12.019531 7.980469 13.660156 10 13.660156 C 12.019531 13.660156 13.660156 12.019531 13.660156 10 C 13.660156 7.980469 12.019531 6.339844 10 6.339844 Z M 10 12.390625 C 8.683594 12.390625 7.609375 11.316406 7.609375 10 C 7.609375 8.683594 8.683594 7.609375 10 7.609375 C 11.316406 7.609375 12.390625 8.683594 12.390625 10 C 12.390625 11.316406 11.316406 12.390625 10 12.390625 Z M 10 12.390625 "/>
</g>
</svg>
