<?xml version="1.0" encoding="UTF-8"?>
<svg xmlns="http://www.w3.org/2000/svg" xmlns:xlink="http://www.w3.org/1999/xlink" width="20pt" height="20pt" viewBox="0 0 20 20" version="1.1">
<defs>
<filter id="alpha" filterUnits="objectBoundingBox" x="0%" y="0%" width="100%" height="100%">
  <feColorMatrix type="matrix" in="SourceGraphic" values="0 0 0 0 1 0 0 0 0 1 0 0 0 0 1 0 0 0 1 0"/>
</filter>
<mask id="mask0">
  <g filter="url(#alpha)">
<rect x="0" y="0" width="20" height="20" style="fill:rgb(0%,0%,0%);fill-opacity:0.2;stroke:none;"/>
  </g>
</mask>
<clipPath id="clip1">
  <rect width="20" height="20"/>
</clipPath>
<g id="surface6" clip-path="url(#clip1)">
<path style=" stroke:none;fill-rule:nonzero;fill:rgb(13.72549%,12.156863%,12.54902%);fill-opacity:1;" d="M 16.25 13.75 C 16.25 14.441406 15.691406 15 15 15 L 5 15 C 4.308594 15 3.75 14.441406 3.75 13.75 L 3.75 7.5 C 3.75 6.808594 4.308594 6.25 5 6.25 L 15 6.25 C 15.691406 6.25 16.25 6.808594 16.25 7.5 Z M 16.25 13.75 "/>
</g>
<mask id="mask1">
  <g filter="url(#alpha)">
<rect x="0" y="0" width="20" height="20" style="fill:rgb(0%,0%,0%);fill-opacity:0.2;stroke:none;"/>
  </g>
</mask>
<clipPath id="clip2">
  <rect width="20" height="20"/>
</clipPath>
<g id="surface9" clip-path="url(#clip2)">
<path style=" stroke:none;fill-rule:nonzero;fill:rgb(13.72549%,12.156863%,12.54902%);fill-opacity:1;" d="M 11.101562 9.433594 C 10.496094 8.761719 9.503906 8.761719 8.898438 9.433594 L 4.078125 13.507812 C 4.023438 13.570312 3.976562 13.632812 3.933594 13.691406 C 4.152344 14.101562 4.546875 14.375 5 14.375 L 15 14.375 C 15.453125 14.375 15.847656 14.101562 16.066406 13.691406 C 16.023438 13.632812 15.976562 13.570312 15.921875 13.507812 Z M 11.101562 9.433594 "/>
</g>
<mask id="mask2">
  <g filter="url(#alpha)">
<rect x="0" y="0" width="20" height="20" style="fill:rgb(0%,0%,0%);fill-opacity:0.2;stroke:none;"/>
  </g>
</mask>
<clipPath id="clip3">
  <rect width="20" height="20"/>
</clipPath>
<g id="surface12" clip-path="url(#clip3)">
<path style=" stroke:none;fill-rule:nonzero;fill:rgb(13.72549%,12.156863%,12.54902%);fill-opacity:1;" d="M 3.933594 6.308594 C 4.152344 5.898438 4.546875 5.625 5 5.625 L 15 5.625 C 15.453125 5.625 15.847656 5.898438 16.066406 6.308594 C 16.023438 6.367188 15.976562 6.429688 15.921875 6.492188 L 11.101562 10.566406 C 10.496094 11.238281 9.503906 11.238281 8.898438 10.566406 Z M 3.933594 6.308594 "/>
</g>
</defs>
<g id="surface1">
<path style=" stroke:none;fill-rule:nonzero;fill:rgb(46.666667%,70.196078%,83.137255%);fill-opacity:1;" d="M 20 10 C 20 15.523438 15.523438 20 10 20 C 4.476562 20 0 15.523438 0 10 C 0 4.476562 4.476562 0 10 0 C 15.523438 0 20 4.476562 20 10 Z M 20 10 "/>
<use xlink:href="#surface6" mask="url(#mask0)"/>
<path style=" stroke:none;fill-rule:nonzero;fill:rgb(87.843137%,87.843137%,81.960784%);fill-opacity:1;" d="M 16.25 13.125 C 16.25 13.816406 15.691406 14.375 15 14.375 L 5 14.375 C 4.308594 14.375 3.75 13.816406 3.75 13.125 L 3.75 6.875 C 3.75 6.183594 4.308594 5.625 5 5.625 L 15 5.625 C 15.691406 5.625 16.25 6.183594 16.25 6.875 Z M 16.25 13.125 "/>
<use xlink:href="#surface9" mask="url(#mask1)"/>
<path style=" stroke:none;fill-rule:nonzero;fill:rgb(87.843137%,87.843137%,81.960784%);fill-opacity:1;" d="M 11.101562 10 C 10.496094 9.40625 9.503906 9.40625 8.898438 10 L 4.078125 13.609375 C 4.023438 13.664062 3.976562 13.71875 3.933594 13.769531 C 4.152344 14.132812 4.546875 14.375 5 14.375 L 15 14.375 C 15.453125 14.375 15.847656 14.132812 16.066406 13.769531 C 16.023438 13.71875 15.976562 13.664062 15.921875 13.609375 Z M 11.101562 10 "/>
<use xlink:href="#surface12" mask="url(#mask2)"/>
<path style=" stroke:none;fill-rule:nonzero;fill:rgb(100%,100%,100%);fill-opacity:1;" d="M 8.898438 10 C 9.503906 10.59375 10.496094 10.59375 11.101562 10 L 15.921875 6.390625 C 15.976562 6.335938 16.023438 6.28125 16.066406 6.230469 C 15.847656 5.867188 15.453125 5.625 15 5.625 L 5 5.625 C 4.546875 5.625 4.152344 5.867188 3.933594 6.230469 C 3.976562 6.28125 4.023438 6.335938 4.078125 6.390625 Z M 8.898438 10 "/>
</g>
</svg>
