<?xml version="1.0" encoding="UTF-8"?>
<svg xmlns="http://www.w3.org/2000/svg" xmlns:xlink="http://www.w3.org/1999/xlink" width="20pt" height="20pt" viewBox="0 0 20 20" version="1.1">
<defs>
<linearGradient id="linear0" gradientUnits="userSpaceOnUse" x1="32" y1="4" x2="32" y2="64.81" gradientTransform="matrix(0.3125,0,0,0.3125,0,0)">
<stop offset="0" style="stop-color:rgb(11.372549%,95.686275%,48.627451%);stop-opacity:1;"/>
<stop offset="0.31" style="stop-color:rgb(7.058824%,87.45098%,38.823529%);stop-opacity:1;"/>
<stop offset="0.75" style="stop-color:rgb(1.960784%,76.862745%,26.27451%);stop-opacity:1;"/>
<stop offset="1" style="stop-color:rgb(0%,72.941176%,21.568627%);stop-opacity:1;"/>
</linearGradient>
</defs>
<g id="surface1">
<path style=" stroke:none;fill-rule:nonzero;fill:url(#linear0);" d="M 3.5 0 L 16.5 0 C 18.433594 0 20 1.566406 20 3.5 L 20 16.5 C 20 18.433594 18.433594 20 16.5 20 L 3.5 20 C 1.566406 20 0 18.433594 0 16.5 L 0 3.5 C 0 1.566406 1.566406 0 3.5 0 Z M 3.5 0 "/>
<path style=" stroke:none;fill-rule:nonzero;fill:rgb(100%,100%,100%);fill-opacity:1;" d="M 8.570312 6.679688 L 9.195312 8.378906 C 9.222656 8.457031 9.210938 8.542969 9.164062 8.609375 C 9.027344 8.804688 8.875 8.984375 8.699219 9.144531 C 8.59375 9.226562 8.574219 9.375 8.648438 9.484375 C 9.035156 10 10.03125 11.25 11.328125 11.695312 C 11.429688 11.730469 11.542969 11.695312 11.605469 11.605469 L 12.125 10.914062 C 12.199219 10.820312 12.328125 10.789062 12.4375 10.84375 L 14.0625 11.65625 C 14.179688 11.710938 14.234375 11.847656 14.1875 11.96875 C 14.007812 12.476562 13.449219 13.710938 12.253906 13.507812 C 10.6875 13.269531 9.265625 12.464844 8.25 11.25 C 7.269531 10.023438 5.332031 6.875 8.308594 6.519531 C 8.421875 6.507812 8.53125 6.574219 8.570312 6.679688 Z M 8.570312 6.679688 "/>
<path style=" stroke:none;fill-rule:nonzero;fill:rgb(100%,100%,100%);fill-opacity:1;" d="M 10.5 17.125 C 9.191406 17.125 7.90625 16.789062 6.769531 16.148438 L 3.019531 17.109375 L 4.398438 14.011719 C 3.5625 12.839844 3.117188 11.4375 3.125 10 C 3.125 6.070312 6.433594 2.875 10.5 2.875 C 14.566406 2.875 17.875 6.070312 17.875 10 C 17.875 13.929688 14.566406 17.125 10.5 17.125 Z M 6.964844 14.804688 L 7.195312 14.945312 C 8.1875 15.558594 9.332031 15.882812 10.5 15.882812 C 13.878906 15.882812 16.625 13.246094 16.625 10.007812 C 16.625 6.765625 13.878906 4.125 10.5 4.125 C 7.121094 4.125 4.375 6.757812 4.375 10 C 4.375 11.289062 4.816406 12.539062 5.625 13.542969 L 5.859375 13.839844 L 4.730469 15.753906 Z M 6.964844 14.804688 "/>
</g>
</svg>
